<?xml version="1.0" standalone="no"?>
<!DOCTYPE svg PUBLIC "-//W3C//DTD SVG 20010904//EN"
 "http://www.w3.org/TR/2001/REC-SVG-20010904/DTD/svg10.dtd">
<svg version="1.0" xmlns="http://www.w3.org/2000/svg"
 width="200.000000pt" height="200.000000pt" viewBox="0 0 200.000000 200.000000"
 preserveAspectRatio="xMidYMid meet">

<g transform="translate(0.000000,200.000000) scale(0.100000,-0.100000)"
fill="#000000" stroke="none">
<path d="M1250 1000 l0 -999 70 24 c313 107 554 371 646 711 25 89 27 116 27
264 0 148 -2 175 -27 264 -92 340 -333 604 -646 711 l-70 24 0 -999z"/>
<path d="M692 1859 c-19 -6 -52 -29 -75 -52 -114 -114 -74 -296 77 -352 42
-16 56 -17 104 -7 63 13 118 52 141 100 l16 32 93 0 92 0 0 65 0 65 -88 0 -88
0 -18 40 c-41 93 -149 139 -254 109z m133 -144 c54 -53 16 -145 -60 -145 -76
0 -114 92 -60 145 16 17 35 25 60 25 25 0 44 -8 60 -25z"/>
<path d="M434 1371 c-75 -19 -134 -94 -134 -171 0 -41 29 -108 56 -132 29 -25
89 -48 127 -48 49 0 118 39 146 83 l24 37 244 0 243 0 0 65 0 65 -247 0 -248
0 -20 29 c-37 56 -125 88 -191 72z"/>
<path d="M142 949 c-19 -6 -52 -29 -75 -52 -114 -114 -74 -296 77 -352 42 -16
56 -17 104 -7 65 14 117 51 145 105 l19 37 364 0 364 0 0 65 0 65 -365 0 -364
0 -17 35 c-42 89 -149 133 -252 104z m129 -138 c40 -41 40 -91 0 -132 -20 -20
-39 -29 -61 -29 -22 0 -41 9 -61 29 -40 41 -40 91 0 132 40 39 82 39 122 0z"/>
<path d="M634 491 c-75 -19 -134 -94 -134 -171 0 -41 29 -108 56 -132 29 -25
89 -48 127 -48 46 0 118 39 142 77 l20 32 148 1 147 0 0 70 0 70 -147 0 -148
0 -20 29 c-37 56 -125 88 -191 72z"/>
</g>
</svg>
